<svg xmlns="http://www.w3.org/2000/svg" width="33.428" height="35.999" viewBox="0 0 33.428 35.999"><defs><style>.a{fill:#c4c4c4;}</style></defs><path class="a" d="M2.571,33.429H8.357V27.643H2.571Zm7.071,0h6.429V27.643H9.643v5.786ZM2.571,26.358H8.357V19.929H2.571Zm7.071,0h6.429V19.929H9.643v6.429ZM2.571,18.643H8.357V12.857H2.571ZM17.357,33.429h6.429V27.643H17.357ZM9.643,18.643h6.429V12.857H9.643ZM25.072,33.429h5.786V27.643H25.072Zm-7.714-7.071h6.429V19.929h-6.43v6.429ZM10.286,9V3.214a.652.652,0,0,0-.643-.643H8.357a.652.652,0,0,0-.643.643V9a.652.652,0,0,0,.643.643H9.643A.652.652,0,0,0,10.286,9ZM25.072,26.357h5.786V19.929H25.072v6.429Zm-7.715-7.714h6.429V12.857H17.357Zm7.714,0h5.786V12.857H25.071ZM25.714,9V3.214a.652.652,0,0,0-.643-.643H23.785a.651.651,0,0,0-.642.643V9a.652.652,0,0,0,.643.643h1.286A.652.652,0,0,0,25.715,9Zm7.714-1.286V33.428A2.606,2.606,0,0,1,30.857,36H2.571a2.471,2.471,0,0,1-1.808-.763A2.471,2.471,0,0,1,0,33.428V7.714A2.471,2.471,0,0,1,.763,5.906a2.471,2.471,0,0,1,1.808-.763H5.142V3.214A3.1,3.1,0,0,1,6.086.944,3.1,3.1,0,0,1,8.357,0H9.643a3.1,3.1,0,0,1,2.27.944,3.1,3.1,0,0,1,.944,2.27V5.143h7.714V3.214a3.1,3.1,0,0,1,.944-2.27A3.1,3.1,0,0,1,23.785,0h1.286a3.1,3.1,0,0,1,2.27.944,3.1,3.1,0,0,1,.944,2.27V5.143h2.571a2.471,2.471,0,0,1,1.808.763,2.471,2.471,0,0,1,.763,1.808Z"/></svg>