<svg xmlns="http://www.w3.org/2000/svg" width="34.88" height="27.758" viewBox="0 0 34.88 27.758"><defs><style>.a{fill:#c4c4c4;}</style></defs><path class="a" d="M30.462,16.615V27a1.4,1.4,0,0,1-1.385,1.385H20.769V20.077H15.231v8.308H6.923A1.4,1.4,0,0,1,5.538,27V16.615a.288.288,0,0,1,.011-.065.288.288,0,0,0,.011-.065L18,6.23,30.44,16.485a.3.3,0,0,1,.022.13Zm4.825-1.493-1.341,1.6a.734.734,0,0,1-.454.238h-.065a.666.666,0,0,1-.454-.151L18,4.327,3.029,16.81a.8.8,0,0,1-.519.151.734.734,0,0,1-.454-.238l-1.341-1.6a.7.7,0,0,1-.151-.508A.632.632,0,0,1,.8,14.149L16.356,1.19a2.682,2.682,0,0,1,3.288,0L24.923,5.6V1.385a.668.668,0,0,1,.693-.693H29.77a.668.668,0,0,1,.693.693v8.827L35.2,14.15a.629.629,0,0,1,.238.465.7.7,0,0,1-.151.508Z" transform="translate(-0.562 -0.627)"/></svg>