<svg xmlns="http://www.w3.org/2000/svg" width="28.393" height="28.63" viewBox="0 0 28.393 28.63"><defs><style>.a{fill:#c4c4c4;}</style></defs><path class="a" d="M14.2,0A14.231,14.231,0,0,0,.272,11.519H4.213A10.38,10.38,0,0,1,14.2,3.859a10.271,10.271,0,0,1,7.327,3.068l-4.554,4.592H28.393V0L24.234,4.193A14.089,14.089,0,0,0,14.2,0ZM0,17.111V28.63l4.159-4.193A14.089,14.089,0,0,0,14.2,28.63,14.231,14.231,0,0,0,28.121,17.111H24.18a10.38,10.38,0,0,1-9.983,7.66A10.271,10.271,0,0,1,6.869,21.7l4.554-4.592Z"/></svg>